<?xml version="1.0" encoding="utf-8"?>
<!-- Generator: Adobe Illustrator 16.0.0, SVG Export Plug-In . SVG Version: 6.00 Build 0)  -->
<!DOCTYPE svg PUBLIC "-//W3C//DTD SVG 1.1//EN" "http://www.w3.org/Graphics/SVG/1.1/DTD/svg11.dtd">
<svg version="1.1" id="Layer_1" xmlns="http://www.w3.org/2000/svg" xmlns:xlink="http://www.w3.org/1999/xlink" x="0px" y="0px"
	 width="944px" height="188.002px" viewBox="0 0 944 188.002" enable-background="new 0 0 944 188.002" xml:space="preserve">
<g>
	<rect y="0.001" fill="#02913F" width="944" height="188"/>
	<polygon fill="#057A35" points="850,94.001 944,94.001 944,188.001 	"/>
	<polygon fill="#36B675" points="756,188.001 756,94.001 850,94.001 	"/>
	<polygon fill="#36B675" points="850,94.001 756,94.001 756,0.001 	"/>
	<polygon fill="#057A35" points="566.733,188.001 566.733,94.001 660.733,94.001 	"/>
	<polygon fill="#057A35" points="566.733,188.001 566.733,94.001 660.733,94.001 	"/>
	<polygon fill="#057A35" points="472.734,94.002 566.734,94.002 566.734,188.002 	"/>
	<polygon fill="#057A35" points="377.467,94.001 283.467,94.001 283.467,0.001 	"/>
	<polygon fill="#057A35" points="189.467,188.002 189.467,94.002 283.467,94.002 	"/>
	<polygon fill="#057A35" points="95.467,94.001 1.467,94.001 1.467,0.001 	"/>
	<polygon fill="#057A35" points="471.467,94.001 377.467,94.001 377.467,0.001 	"/>
	<polygon fill="#057A35" points="472.734,0.001 566.734,0.001 566.734,94.001 	"/>
	<polygon fill="#36B675" points="660.733,94.001 566.733,94.001 566.733,0.001 	"/>
	<polygon fill="#36B675" points="283.467,94.001 189.467,94.001 189.467,0.001 	"/>
	<polygon fill="#36B675" points="95.467,94.002 189.467,94.002 189.467,188.002 	"/>
	<polygon fill="#36B675" points="1.467,94.002 95.467,94.002 95.467,188.002 	"/>
	<polygon fill="#057A35" points="283.467,94.001 377.467,94.001 377.467,188.001 	"/>
	<polygon fill="#36B675" points="471.466,188.001 377.466,188.001 377.466,94.001 	"/>
	<polygon fill="#36B675" points="660.733,94 660.733,0 754.733,0 	"/>
	<polygon fill="#057A35" points="660.733,188.001 660.733,94.001 754.733,94.001 	"/>
	<polygon fill="#057A35" points="850,94.001 850,0.001 944,0.001 	"/>
</g>
</svg>
