<?xml version="1.0" encoding="utf-8"?>
<!-- Generator: Adobe Illustrator 16.0.0, SVG Export Plug-In . SVG Version: 6.00 Build 0)  -->
<!DOCTYPE svg PUBLIC "-//W3C//DTD SVG 1.1//EN" "http://www.w3.org/Graphics/SVG/1.1/DTD/svg11.dtd">
<svg version="1.1" id="Layer_1" xmlns="http://www.w3.org/2000/svg" xmlns:xlink="http://www.w3.org/1999/xlink" x="0px" y="0px"
	 width="942.532px" height="188.002px" viewBox="0 0 942.532 188.002" enable-background="new 0 0 942.532 188.002"
	 xml:space="preserve">
<g>
	<rect x="0" y="0.001" fill="#00A74C" width="942.532" height="188"/>
	<polygon fill="#057A35" points="94,94.001 0,94.001 0,0.001 	"/>
	<polygon fill="#36B675" points="188,0.001 188,94.001 94,94.001 	"/>
	<polygon fill="#36B675" points="94,94.001 188,94.001 188,188.001 	"/>
	<polygon fill="#057A35" points="377.267,0.001 377.267,94.001 283.267,94.001 	"/>
	<polygon fill="#057A35" points="377.267,0.001 377.267,94.001 283.267,94.001 	"/>
	<polygon fill="#057A35" points="471.266,94 377.266,94 377.266,0 	"/>
	<polygon fill="#057A35" points="566.532,94.001 660.532,94.001 660.532,188.001 	"/>
	<polygon fill="#057A35" points="754.532,0 754.532,94 660.532,94 	"/>
	<polygon fill="#057A35" points="848.532,94.001 942.532,94.001 942.532,188.001 	"/>
	<polygon fill="#057A35" points="472.532,94.001 566.532,94.001 566.532,188.001 	"/>
	<polygon fill="#057A35" points="471.266,188.001 377.266,188.001 377.266,94.001 	"/>
	<polygon fill="#36B675" points="283.267,94.001 377.267,94.001 377.267,188.001 	"/>
	<polygon fill="#36B675" points="660.532,94.001 754.532,94.001 754.532,188.001 	"/>
	<polygon fill="#36B675" points="848.532,94 754.532,94 754.532,0 	"/>
	<polygon fill="#36B675" points="942.532,94 848.532,94 848.532,0 	"/>
	<polygon fill="#057A35" points="660.532,94.001 566.532,94.001 566.532,0.001 	"/>
	<polygon fill="#36B675" points="472.533,0.001 566.533,0.001 566.533,94.001 	"/>
	<polygon fill="#36B675" points="283.267,94.002 283.267,188.002 189.267,188.002 	"/>
	<polygon fill="#057A35" points="283.267,0.001 283.267,94.001 189.267,94.001 	"/>
	<polygon fill="#057A35" points="94,94.001 94,188.001 0,188.001 	"/>
</g>
</svg>
