<?xml version="1.0" encoding="utf-8"?>
<!-- Generator: Adobe Illustrator 16.0.0, SVG Export Plug-In . SVG Version: 6.00 Build 0)  -->
<!DOCTYPE svg PUBLIC "-//W3C//DTD SVG 1.1//EN" "http://www.w3.org/Graphics/SVG/1.1/DTD/svg11.dtd">
<svg version="1.1" id="Layer_1" xmlns="http://www.w3.org/2000/svg" xmlns:xlink="http://www.w3.org/1999/xlink" x="0px" y="0px"
	 width="944px" height="188.002px" viewBox="0 0 944 188.002" enable-background="new 0 0 944 188.002" xml:space="preserve">
<g>
	<rect y="0.001" fill="#00A74C" width="944" height="188"/>
	<polygon fill="#057A35" points="376,94.001 282,94.001 282,0.001 	"/>
	<polygon fill="#36B675" points="470,0.001 470,94.001 376,94.001 	"/>
	<polygon fill="#36B675" points="376,94.001 470,94.001 470,188.001 	"/>
	<polygon fill="#057A35" points="659.267,0.001 659.267,94.001 565.267,94.001 	"/>
	<polygon fill="#057A35" points="659.267,0.001 659.267,94.001 565.267,94.001 	"/>
	<polygon fill="#057A35" points="753.266,94 659.266,94 659.266,0 	"/>
	<polygon fill="#057A35" points="848.533,94.001 942.533,94.001 942.533,188.001 	"/>
	<polygon fill="#057A35" points="95.467,0 95.467,94 1.467,94 	"/>
	<polygon fill="#057A35" points="189.467,94.001 283.467,94.001 283.467,188.001 	"/>
	<polygon fill="#057A35" points="754.533,94.001 848.533,94.001 848.533,188.001 	"/>
	<polygon fill="#057A35" points="753.266,188.001 659.266,188.001 659.266,94.001 	"/>
	<polygon fill="#36B675" points="565.267,94.001 659.267,94.001 659.267,188.001 	"/>
	<polygon fill="#36B675" points="1.467,94.001 95.467,94.001 95.467,188.001 	"/>
	<polygon fill="#36B675" points="189.467,94 95.467,94 95.467,0 	"/>
	<polygon fill="#36B675" points="283.467,94 189.467,94 189.467,0 	"/>
	<polygon fill="#057A35" points="942.533,94.001 848.533,94.001 848.533,0.001 	"/>
	<polygon fill="#36B675" points="754.534,0.001 848.534,0.001 848.534,94.001 	"/>
	<polygon fill="#36B675" points="565.267,94.002 565.267,188.002 471.267,188.002 	"/>
	<polygon fill="#057A35" points="565.267,0.001 565.267,94.001 471.267,94.001 	"/>
	<polygon fill="#057A35" points="376,94.001 376,188.001 282,188.001 	"/>
</g>
</svg>
